<?xml version="1.0" encoding="UTF-8"?>
<svg width="175px" height="52px" viewBox="0 0 175 52" version="1.1" xmlns="http://www.w3.org/2000/svg" xmlns:xlink="http://www.w3.org/1999/xlink">
    <!-- Generator: Sketch 58 (84663) - https://sketch.com -->
    <title>Appstore</title>
    <desc>Created with Sketch.</desc>
    <g id="Page-1" stroke="none" stroke-width="1" fill="none" fill-rule="evenodd">
        <g id="Desktop-HD" transform="translate(-1212.000000, -5288.000000)">
            <g id="Appstore" transform="translate(1212.000000, 5288.000000)">
                <rect id="backfround-copy" fill="#000000" x="0" y="0" width="175" height="52" rx="10"></rect>
                <path d="M66.9173542,40.7586019 L69.8592971,40.7586019 L63.4191616,23.4205352 L60.4401354,23.4205352 L54,40.7586019 L56.843054,40.7586019 L58.4870809,36.1567449 L65.2856884,36.1567449 L66.9173542,40.7586019 Z M61.7874958,26.5685418 L61.9976346,26.5685418 L64.5811054,33.89787 L59.1916639,33.89787 L61.7874958,26.5685418 Z M77.6599075,27.4576734 C75.830464,27.4576734 74.2482426,28.346805 73.4324098,29.8367013 L73.2346321,29.8367013 L73.2346321,27.6739487 L70.6758834,27.6739487 L70.6758834,45 L73.3335209,45 L73.3335209,38.7760786 L73.5436597,38.7760786 C74.2482426,40.1578372 75.7686585,40.9748771 77.6846297,40.9748771 C81.0839334,40.9748771 83.2471267,38.3675587 83.2471267,34.2102676 C83.2471267,30.0529765 81.0839334,27.4576734 77.6599075,27.4576734 L77.6599075,27.4576734 Z M76.9058801,38.6559257 C74.6808813,38.6559257 73.2840765,36.9497542 73.2840765,34.2222829 C73.2840765,31.4827963 74.6808813,29.7766248 76.9182412,29.7766248 C79.1679622,29.7766248 80.5153226,31.4467504 80.5153226,34.2102676 C80.5153226,36.9858001 79.1679622,38.6559257 76.9058801,38.6559257 L76.9058801,38.6559257 Z M91.4432925,27.4576734 C89.613849,27.4576734 88.0316276,28.346805 87.2157947,29.8367013 L87.0180171,29.8367013 L87.0180171,27.6739487 L84.4592684,27.6739487 L84.4592684,45 L87.1169059,45 L87.1169059,38.7760786 L87.3270447,38.7760786 C88.0316276,40.1578372 89.5520435,40.9748771 91.4680147,40.9748771 C94.8673184,40.9748771 97.0305117,38.3675587 97.0305117,34.2102676 C97.0305117,30.0529765 94.8673184,27.4576734 91.4432925,27.4576734 L91.4432925,27.4576734 Z M90.6892651,38.6559257 C88.4642663,38.6559257 87.0674615,36.9497542 87.0674615,34.2222829 C87.0674615,31.4827963 88.4642663,29.7766248 90.7016262,29.7766248 C92.9513472,29.7766248 94.2987076,31.4467504 94.2987076,34.2102676 C94.2987076,36.9858001 92.9513472,38.6559257 90.6892651,38.6559257 L90.6892651,38.6559257 Z M102.656321,36.0966685 C102.854099,39.1966139 105.511736,41.1791371 109.46729,41.1791371 C113.694788,41.1791371 116.340064,39.1004915 116.340064,35.7842709 C116.340064,33.1769525 114.832009,31.7351174 111.173122,30.9060623 L109.207707,30.4374659 C106.883819,29.908793 105.944375,29.1998908 105.944375,27.9623157 C105.944375,26.4003277 107.402985,25.3790279 109.590901,25.3790279 C111.667566,25.3790279 113.101455,26.3762971 113.361038,27.974331 L116.055759,27.974331 C115.895064,25.054615 113.249788,23 109.627984,23 C105.734236,23 103.138404,25.054615 103.138404,28.1425451 C103.138404,30.689787 104.609376,32.2037138 107.835624,32.9366466 L110.134789,33.4773348 C112.49576,34.0180229 113.534093,34.8110322 113.534093,36.1327144 C113.534093,37.6706718 111.902427,38.7880939 109.677429,38.7880939 C107.291735,38.7880939 105.635347,37.7427635 105.400486,36.0966685 L102.656321,36.0966685 Z M118.627622,24.5019115 L118.627622,27.7340251 L116.414984,27.7340251 L116.414984,29.908793 L118.627622,29.908793 L118.627622,37.2981977 C118.627622,39.8214091 119.801927,40.8306936 122.756231,40.8306936 C123.275397,40.8306936 123.75748,40.7706171 124.177758,40.6985254 L124.177758,38.5477881 C123.806925,38.583834 123.596786,38.6078646 123.188869,38.6078646 C121.866231,38.6078646 121.285259,38.0070999 121.285259,36.6373566 L121.285259,29.908793 L124.301369,29.908793 L124.301369,27.7340251 L121.285259,27.7340251 L121.285259,24.5019115 L118.627622,24.5019115 Z M130.890591,38.7160022 C128.579064,38.7160022 127.281148,37.0699072 127.281148,34.2102676 C127.281148,31.3746587 128.579064,29.7165483 130.890591,29.7165483 C133.189756,29.7165483 134.500033,31.3746587 134.500033,34.2102676 C134.500033,37.0578919 133.189756,38.7160022 130.890591,38.7160022 L130.890591,38.7160022 Z M130.890591,41.010923 C134.821422,41.010923 137.231837,38.4516658 137.231837,34.2102676 C137.231837,29.9929001 134.809061,27.4216275 130.890591,27.4216275 C126.95976,27.4216275 124.536983,29.9929001 124.536983,34.2102676 C124.536983,38.4516658 126.947399,41.010923 130.890591,41.010923 L130.890591,41.010923 Z M138.443979,40.7586019 L141.101617,40.7586019 L141.101617,33.032769 C141.101617,31.1944293 142.523144,29.9568542 144.525643,29.9568542 C144.970642,29.9568542 145.786475,30.0409612 145.996614,30.113053 L145.996614,27.565811 C145.712309,27.4937193 145.205503,27.4576734 144.822309,27.4576734 C143.067032,27.4576734 141.5837,28.3948662 141.200506,29.6805025 L141.002728,29.6805025 L141.002728,27.6739487 L138.443979,27.6739487 L138.443979,40.7586019 Z M151.980142,29.620426 C153.945558,29.620426 155.231113,30.9541234 155.292918,33.0087384 L148.494311,33.0087384 C148.642644,30.9661387 150.014726,29.620426 151.980142,29.620426 L151.980142,29.620426 Z M155.280557,37.226106 C154.786113,38.2474058 153.685975,38.8121245 152.079031,38.8121245 C149.952921,38.8121245 148.580838,37.3582742 148.494311,35.0633534 L148.494311,34.9191699 L158,34.9191699 L158,34.0180229 C158,29.908793 155.737918,27.4216275 151.992503,27.4216275 C148.197644,27.4216275 145.787229,30.0770071 145.787229,34.2583288 C145.787229,38.4396505 148.1482,41.010923 152.004864,41.010923 C155.082779,41.010923 157.233612,39.5690879 157.839306,37.226106 L155.280557,37.226106 Z" id="App-Store" fill="#FFFFFF"></path>
                <path d="M56,7.37003257 L56,14.8905537 L59.0812517,14.8905537 C61.6243193,14.8905537 63.0969329,13.5094463 63.0969329,11.1068404 C63.0969329,8.74071661 61.6124911,7.37003257 59.0812517,7.37003257 L56,7.37003257 Z M57.3247608,8.43322476 L58.9333989,8.43322476 C60.701718,8.43322476 61.7485156,9.42345277 61.7485156,11.1224756 C61.7485156,12.847557 60.7194604,13.8273616 58.9333989,13.8273616 L57.3247608,13.8273616 L57.3247608,8.43322476 Z M67.7584349,14.0045603 C66.6524962,14.0045603 66.0315146,13.2905537 66.0315146,12.0501629 C66.0315146,10.8201954 66.6524962,10.1009772 67.7584349,10.1009772 C68.8584595,10.1009772 69.4853553,10.8201954 69.4853553,12.0501629 C69.4853553,13.285342 68.8584595,14.0045603 67.7584349,14.0045603 L67.7584349,14.0045603 Z M67.7584349,15 C69.6391221,15 70.7923737,13.8899023 70.7923737,12.0501629 C70.7923737,10.2208469 69.633208,9.10553746 67.7584349,9.10553746 C65.8777477,9.10553746 64.718582,10.2208469 64.718582,12.0501629 C64.718582,13.8899023 65.8718336,15 67.7584349,15 L67.7584349,15 Z M80.7588331,9.21498371 L79.4872993,9.21498371 L78.3399618,13.5459283 L78.2394219,13.5459283 L76.9146611,9.21498371 L75.6963543,9.21498371 L74.3715935,13.5459283 L74.2769678,13.5459283 L73.1237162,9.21498371 L71.83444,9.21498371 L73.6086732,14.8905537 L74.9156917,14.8905537 L76.2404525,10.7107492 L76.3409924,10.7107492 L77.6716673,14.8905537 L78.990514,14.8905537 L80.7588331,9.21498371 Z M82.3745682,14.8905537 L83.646102,14.8905537 L83.646102,11.570684 C83.646102,10.6846906 84.2729977,10.1322476 85.2961388,10.1322476 C86.2423966,10.1322476 86.7036972,10.5856678 86.7036972,11.4977199 L86.7036972,14.8905537 L87.975231,14.8905537 L87.975231,11.2162866 C87.975231,9.86644951 87.1649978,9.10553746 85.7278689,9.10553746 C84.7579548,9.10553746 84.0068627,9.48599349 83.6934148,10.1166124 L83.5987891,10.1166124 L83.5987891,9.21498371 L82.3745682,9.21498371 L82.3745682,14.8905537 Z M90.123236,14.8905537 L91.3947698,14.8905537 L91.3947698,7 L90.123236,7 L90.123236,14.8905537 Z M96.3224069,14.0045603 C95.2164682,14.0045603 94.5954865,13.2905537 94.5954865,12.0501629 C94.5954865,10.8201954 95.2164682,10.1009772 96.3224069,10.1009772 C97.4224315,10.1009772 98.0493272,10.8201954 98.0493272,12.0501629 C98.0493272,13.285342 97.4224315,14.0045603 96.3224069,14.0045603 L96.3224069,14.0045603 Z M96.3224069,15 C98.2030941,15 99.3563457,13.8899023 99.3563457,12.0501629 C99.3563457,10.2208469 98.19718,9.10553746 96.3224069,9.10553746 C94.4417197,9.10553746 93.282554,10.2208469 93.282554,12.0501629 C93.282554,13.8899023 94.4358055,15 96.3224069,15 L96.3224069,15 Z M103.290412,14.0410423 C102.598461,14.0410423 102.095762,13.7439739 102.095762,13.2332248 C102.095762,12.732899 102.497921,12.467101 103.385038,12.4149837 L104.958191,12.3263844 L104.958191,12.8006515 C104.958191,13.5042345 104.248498,14.0410423 103.290412,14.0410423 L103.290412,14.0410423 Z M102.965136,14.9843648 C103.810854,14.9843648 104.514633,14.6612378 104.89905,14.0931596 L104.99959,14.0931596 L104.99959,14.8905537 L106.223811,14.8905537 L106.223811,11.0130293 C106.223811,9.81433225 105.313038,9.10553746 103.698486,9.10553746 C102.2377,9.10553746 101.196817,9.73094463 101.066706,10.7055375 L102.296842,10.7055375 C102.43878,10.3042345 102.929651,10.0749186 103.639345,10.0749186 C104.508719,10.0749186 104.958191,10.4136808 104.958191,11.0130293 L104.958191,11.5029316 L103.213529,11.5915309 C101.681774,11.6749186 100.818314,12.2638436 100.818314,13.285342 C100.818314,14.3224756 101.723173,14.9843648 102.965136,14.9843648 L102.965136,14.9843648 Z M110.690147,14.9843648 C111.577264,14.9843648 112.328356,14.6143322 112.712773,13.9941368 L112.813313,13.9941368 L112.813313,14.8905537 L114.03162,14.8905537 L114.03162,7 L112.760086,7 L112.760086,10.1166124 L112.66546,10.1166124 C112.316528,9.49120521 111.57135,9.12117264 110.690147,9.12117264 C109.063767,9.12117264 108.016969,10.257329 108.016969,12.0501629 C108.016969,13.8482085 109.051939,14.9843648 110.690147,14.9843648 L110.690147,14.9843648 Z M111.050908,10.1270358 C112.115448,10.1270358 112.783743,10.8723127 112.783743,12.0553746 C112.783743,13.2436482 112.121362,13.9785016 111.050908,13.9785016 C109.97454,13.9785016 109.329902,13.2540717 109.329902,12.0501629 C109.329902,10.8566775 109.980454,10.1270358 111.050908,10.1270358 L111.050908,10.1270358 Z M122.573962,14.0045603 C121.468023,14.0045603 120.847041,13.2905537 120.847041,12.0501629 C120.847041,10.8201954 121.468023,10.1009772 122.573962,10.1009772 C123.673986,10.1009772 124.300882,10.8201954 124.300882,12.0501629 C124.300882,13.285342 123.673986,14.0045603 122.573962,14.0045603 L122.573962,14.0045603 Z M122.573962,15 C124.454649,15 125.6079,13.8899023 125.6079,12.0501629 C125.6079,10.2208469 124.448735,9.10553746 122.573962,9.10553746 C120.693274,9.10553746 119.534109,10.2208469 119.534109,12.0501629 C119.534109,13.8899023 120.68736,15 122.573962,15 L122.573962,15 Z M127.436543,14.8905537 L128.708077,14.8905537 L128.708077,11.570684 C128.708077,10.6846906 129.334973,10.1322476 130.358114,10.1322476 C131.304372,10.1322476 131.765672,10.5856678 131.765672,11.4977199 L131.765672,14.8905537 L133.037206,14.8905537 L133.037206,11.2162866 C133.037206,9.86644951 132.226973,9.10553746 130.789844,9.10553746 C129.81993,9.10553746 129.068838,9.48599349 128.75539,10.1166124 L128.660764,10.1166124 L128.660764,9.21498371 L127.436543,9.21498371 L127.436543,14.8905537 Z M139.190247,7.83908795 L139.190247,9.24104235 L138.131621,9.24104235 L138.131621,10.1843648 L139.190247,10.1843648 L139.190247,13.3895765 C139.190247,14.4840391 139.752088,14.9218241 141.16556,14.9218241 C141.413953,14.9218241 141.644603,14.8957655 141.845683,14.8644951 L141.845683,13.9315961 C141.668259,13.9472313 141.567719,13.9576547 141.372554,13.9576547 C140.739744,13.9576547 140.461781,13.6970684 140.461781,13.1029316 L140.461781,10.1843648 L141.904824,10.1843648 L141.904824,9.24104235 L140.461781,9.24104235 L140.461781,7.83908795 L139.190247,7.83908795 Z M143.715725,14.8905537 L144.987258,14.8905537 L144.987258,11.5758958 C144.987258,10.7159609 145.631896,10.1374593 146.67278,10.1374593 C147.630866,10.1374593 148.109909,10.5960912 148.109909,11.5029316 L148.109909,14.8905537 L149.381443,14.8905537 L149.381443,11.2267101 C149.381443,9.87687296 148.553467,9.11074919 147.10451,9.11074919 C146.134596,9.11074919 145.389418,9.49120521 145.07597,10.1270358 L144.97543,10.1270358 L144.97543,7 L143.715725,7 L143.715725,14.8905537 Z M154.119828,10.0592834 C155.060172,10.0592834 155.675239,10.637785 155.70481,11.5289902 L152.452049,11.5289902 C152.523018,10.6429967 153.179484,10.0592834 154.119828,10.0592834 L154.119828,10.0592834 Z M155.698896,13.3583062 C155.462331,13.8013029 154.935975,14.0462541 154.167141,14.0462541 C153.149914,14.0462541 152.493448,13.4156352 152.452049,12.4201954 L152.452049,12.3576547 L157,12.3576547 L157,11.9667752 C157,10.1843648 155.917718,9.10553746 154.125742,9.10553746 C152.31011,9.10553746 151.156859,10.257329 151.156859,12.0710098 C151.156859,13.8846906 152.286454,15 154.131656,15 C155.60427,15 156.633325,14.3745928 156.923117,13.3583062 L155.698896,13.3583062 Z" id="Download-on-the" fill="#FFFFFF"></path>
                <g id="logo_apple" transform="translate(17.000000, 7.000000)" fill="#FFFFFF">
                    <path d="M23.3342304,18.5542185 C23.2953912,14.1465142 26.8685993,12.0021517 27.0319919,11.9023185 C25.0083347,8.88954389 21.8717329,8.47790288 20.7695027,8.445081 C18.1351323,8.16199233 15.5797795,10.0547205 14.2378176,10.0547205 C12.8690699,10.0547205 10.8025556,8.47243257 8.57532734,8.51893022 C5.70926086,8.5640603 3.02801549,10.2584896 1.55748232,12.8897099 C-1.47733387,18.2547189 0.786055079,26.1388067 3.69363934,30.475397 C5.14810112,32.6006134 6.84765175,34.9706262 9.07220148,34.887204 C11.248537,34.7969438 12.061482,33.470393 14.6878168,33.470393 C17.2900444,33.470393 18.053436,34.887204 20.3221821,34.8325008 C22.6578923,34.7969438 24.1284255,32.7004466 25.5319945,30.5560841 C27.2127952,28.1245302 27.887794,25.7244306 27.9145797,25.6013485 C27.8610083,25.58357 23.3797661,23.8371728 23.3342304,18.5542185" id="Fill-2"></path>
                    <path d="M19.0485235,5.59231304 C20.2190572,4.09755016 21.0199487,2.06396149 20.7976277,0.000286108084 C19.1034342,0.0768704829 16.9846878,1.19691696 15.7646006,2.65885798 C14.6851382,3.94711656 13.7208542,6.05865718 13.9699609,8.04438062 C15.8730826,8.1893439 17.8270971,7.0638271 19.0485235,5.59231304" id="Fill-3"></path>
                </g>
            </g>
        </g>
    </g>
</svg>