<?xml version="1.0" encoding="UTF-8"?>
<svg width="140px" height="149px" viewBox="0 0 140 149" version="1.1" xmlns="http://www.w3.org/2000/svg" xmlns:xlink="http://www.w3.org/1999/xlink">
    <!-- Generator: Sketch 58 (84663) - https://sketch.com -->
    <title>icon-play-game</title>
    <desc>Created with Sketch.</desc>
    <defs>
        <path d="M0.08,3.74883721 C0.08,5.40437209 1.41627119,6.74669767 3.06128814,6.74669767 L3.06128814,6.74669767 C4.7099661,6.74669767 6.04257627,5.40437209 6.04257627,3.74883721 L6.04257627,3.74883721 C6.04257627,2.09451163 4.7099661,0.749767442 3.06128814,0.749767442 L3.06128814,0.749767442 C1.41627119,0.749767442 0.08,2.09451163 0.08,3.74883721 L0.08,3.74883721 Z" id="path-1"></path>
    </defs>
    <g id="Page-1" stroke="none" stroke-width="1" fill="none" fill-rule="evenodd">
        <g id="Desktop-HD" transform="translate(-649.000000, -1927.000000)">
            <g id="icon-play-game" transform="translate(649.000000, 1928.000000)">
                <path d="M80,84.3043605 L80,140.594867 C80,144.132274 77.1523693,147 73.6380968,147 L7.36072747,147 C3.84645494,147 1,144.132274 1,140.594867 L1,9.40396675 C1,5.8688931 3.84645494,3 7.36072747,3 L73.6380968,3" id="Stroke-1" stroke="#FF7B7B" stroke-width="2"></path>
                <g id="Group-6" transform="translate(37.000000, 134.000000)">
                    <mask id="mask-2" fill="white">
                        <use xlink:href="#path-1"></use>
                    </mask>
                    <use id="Clip-4" fill="#FF7B7B" xlink:href="#path-1"></use>
                </g>
                <g id="Group-19" stroke="#FF7B7B" stroke-width="2">
                    <path d="M0,128.031125 L78.1875,128.031125" id="Stroke-9"></path>
                    <path d="M0,26.9200138 L49.2291667,26.9200138" id="Stroke-11"></path>
                    <path d="M34.75,18.2533471 L46.3333333,18.2533471" id="Stroke-13" stroke-linecap="round"></path>
                    <path d="M105.105017,2.61354346 C129.107838,9.1131299 143.84881,33.3384395 137.53916,55.9124715 C131.230689,78.4830247 105.97442,91.8787825 81.9715992,85.379196 L77.3065111,84.1163861 C76.6385553,83.9343281 75.3061779,83.5736909 74.4285287,84.143057 L43.4375,102.031125 L57.9028074,74.0034702 C58.5330655,71.7457192 58.2892086,70.0619726 57.1641684,68.9464325 C49.2676821,58.715237 46.6312005,45.0504508 49.9968967,33.0114309 C56.0603332,8.75713114 81.1092648,-3.88488337 105.105017,2.61354346" id="Stroke-15"></path>
                    <g id="$" transform="translate(83.083333, 19.253347)" stroke-linecap="round" stroke-linejoin="round">
                        <path d="M18.4978667,13.4664578 C18.4978667,8.38201333 14.495825,5.73579111 9.39915833,5.73579111 C4.30249167,5.73579111 0.173033333,8.38201333 0.173033333,13.4664578 C0.173033333,18.5509022 3.24261667,19.6082356 9.39915833,22.6762356 C15.5441167,25.7384578 18.6194917,26.7957911 18.6194917,31.8802356 C18.6194917,36.9589022 14.495825,39.5473467 9.39915833,39.5473467 C4.30249167,39.5473467 0.173033333,36.9589022 0.173033333,31.8802356" id="Stroke-1"></path>
                        <path d="M9.398,1.16614667 L9.398,5.19325778" id="Stroke-3"></path>
                        <path d="M9.398,40.0927689 L9.398,44.1141022" id="Stroke-5"></path>
                    </g>
                </g>
            </g>
        </g>
    </g>
</svg>