<?xml version="1.0" encoding="UTF-8"?>
<svg width="151px" height="147px" viewBox="0 0 151 147" version="1.1" xmlns="http://www.w3.org/2000/svg" xmlns:xlink="http://www.w3.org/1999/xlink">
    <!-- Generator: Sketch 58 (84663) - https://sketch.com -->
    <title>icon-shoping</title>
    <desc>Created with Sketch.</desc>
    <g id="Page-1" stroke="none" stroke-width="1" fill="none" fill-rule="evenodd" stroke-linecap="round">
        <g id="Desktop-HD" transform="translate(-190.000000, -1930.000000)" stroke="#FF7B7B" stroke-width="2">
            <g id="icon-shoping" transform="translate(191.000000, 1931.000000)">
                <path d="M138,70 L138,139.465275 C138,142.520239 135.536172,145 132.496921,145 L115.631621,145 L16.503079,145 C13.463828,145 11,142.520239 11,139.465275 L11,70" id="Stroke-1"></path>
                <path d="M116,145 L116,90.4735398 C116,87.4502717 113.519893,85 110.459813,85 L85.5369826,85 C82.4769025,85 80,87.4502717 80,90.4735398 L80,145" id="Stroke-3"></path>
                <path d="M116,115.5 L80,115.5" id="Stroke-5"></path>
                <path d="M62,103.5 L26,103.5" id="Stroke-7"></path>
                <path d="M59.4742924,116 L28.5225255,116 C26.5782951,116 25,114.410719 25,112.452957 L25,86.5534518 C25,84.5892805 26.5782951,83 28.5225255,83 L59.4742924,83 C61.4217049,83 63,84.5892805 63,86.5534518 L63,112.452957 C63,114.410719 61.4217049,116 59.4742924,116 Z" id="Stroke-9"></path>
                <path d="M134.4807,14 L83.0232552,14 L14.5224792,14 C12.5768499,14 11,12.4677846 11,10.5772286 L11,3.4227714 C11,1.53221536 12.5768499,0 14.5224792,0 L134.4807,0 C136.42315,0 138,1.53221536 138,3.4227714 L138,10.5772286 C138,12.4677846 136.42315,14 134.4807,14 Z" id="Stroke-11"></path>
                <path d="M83,15 L82.9968436,62.8445352 C82.9968436,67.348876 79.4174393,71 75.0015782,71 C70.5857171,71 67.0094693,67.348876 67.0094693,62.8445352 L67,15" id="Stroke-13"></path>
                <path d="M67,14 L66.5618622,63.1086552 C66.4179961,67.6055374 62.5957342,71.1374234 58.0214449,70.9958906 C53.4504252,70.8543578 49.860311,67.0940894 50.0041771,62.5939906 L51.5376594,14.5596978" id="Stroke-15"></path>
                <path d="M52,15.5475905 L49.5465398,62.5770671 C49.2063267,66.9926089 45.2349925,70.3066392 40.6715566,69.9774518 C36.1081207,69.6482645 32.6830903,65.7993047 33.0233034,61.383763 L36.5988127,15" id="Stroke-17"></path>
                <path d="M37,15 L32.734815,62.9644317 C32.1923134,67.3657692 28.2451465,70.4860258 23.917605,69.9374441 C19.5900634,69.3856914 16.5221233,65.3712149 17.0615071,60.9698774 L23.0227891,15.1680626" id="Stroke-19"></path>
                <path d="M22,14.4707831 L16.0173644,62.8749627 C15.4651211,67.3322706 11.4470751,70.4922064 7.04182411,69.9366486 C2.63657308,69.3778794 -0.486457914,65.3123522 0.0626115591,60.8550444 L10.9995677,13" id="Stroke-21"></path>
                <path d="M96.6069239,14 L98.9972038,61.7090617 C99.1119124,66.1739074 95.6830544,69.8823781 91.3489283,69.9972705 C87.0117019,70.1121629 83.4092308,66.5856051 83.2976224,62.1239509 L83,15.1936042" id="Stroke-23"></path>
                <path d="M111.534091,14.4981472 L115.984206,61.4101999 C116.259569,65.8679785 112.901409,69.7062664 108.479779,69.9840793 C104.06448,70.2618921 100.256877,66.8706594 99.9846793,62.4128808 L97,14" id="Stroke-25"></path>
                <path d="M124.51785,15 L132.951751,61.0936758 C133.430558,65.5018094 130.291708,69.4662775 125.938626,69.9511405 C121.585543,70.4360035 117.670586,67.2574572 117.194908,62.8493236 L112,15" id="Stroke-27"></path>
                <path d="M136.701283,13 L148.950627,61.0849585 C149.443415,65.4977032 146.191664,69.4663183 141.685249,69.9516885 C137.175591,70.4338863 133.119817,67.2520151 132.62703,62.8424428 L124,14.9430669" id="Stroke-29"></path>
            </g>
        </g>
    </g>
</svg>