<?xml version="1.0" encoding="UTF-8"?>
<svg width="188px" height="152px" viewBox="0 0 188 152" version="1.1" xmlns="http://www.w3.org/2000/svg" xmlns:xlink="http://www.w3.org/1999/xlink">
    <!-- Generator: Sketch 58 (84663) - https://sketch.com -->
    <title>icon-rewards</title>
    <desc>Created with Sketch.</desc>
    <g id="Page-1" stroke="none" stroke-width="1" fill="none" fill-rule="evenodd">
        <g id="Desktop-HD" transform="translate(-1080.000000, -1923.000000)" stroke="#FF7B7B" stroke-width="2">
            <g id="icon-rewards" transform="translate(1081.000000, 1924.000000)">
                <path d="M186,25.5 C186,39.5835546 160.927578,51 130,51 C99.0724221,51 74,39.5835546 74,25.5 C74,11.4164454 99.0724221,0 130,0 C160.927578,0 186,11.4164454 186,25.5 Z" id="Stroke-1" stroke-linecap="round"></path>
                <path d="M181.41841,35 C184.365396,38.0466597 186,41.4092939 186,44.9415566 C186,58.7812411 160.933836,70 130.013978,70 C124.079728,70 118.363649,69.5875701 113,68.8225791" id="Stroke-3" stroke-linecap="round"></path>
                <path d="M180.501485,55 C183.397653,58.0423205 185,61.3975273 185,64.9224917 C185,78.7727057 160.228313,90 129.667607,90 C125.663399,90 121.762032,89.8069425 118,89.4407989" id="Stroke-5" stroke-linecap="round"></path>
                <path d="M180.416189,75 C183.3634,78.0558983 185,81.4306729 185,84.9748505 C185,98.7961469 160.15827,110 129.515258,110 C124.851613,110 120.327677,109.740913 116,109.252634" id="Stroke-7" stroke-linecap="round"></path>
                <path d="M180.373733,95 C183.34848,98.0583491 185,101.432163 185,104.981973 C185,118.799336 159.982649,130 129.123003,130 C121.264044,130 113.783628,129.27277 107,127.961101" id="Stroke-9" stroke-linecap="round"></path>
                <path d="M180.354017,115 C183.343111,118.062956 185,121.444487 185,125.001896 C185,138.80677 160.002735,150 129.167866,150 C114.895191,150 101.874388,147.604058 92,143.658386" id="Stroke-11" stroke-linecap="round"></path>
                <g id="Group" transform="translate(0.000000, 40.000000)">
                    <path d="M109.706667,54.6666667 C109.706667,84.8633333 85.1466667,109.34 54.85,109.34 C24.5633333,109.34 1.77635684e-14,84.8633333 1.77635684e-14,54.6666667 C1.77635684e-14,24.47 24.5633333,-4.97379915e-14 54.85,-4.97379915e-14 C85.1466667,-4.97379915e-14 109.706667,24.47 109.706667,54.6666667 Z" id="Stroke-14" stroke-linecap="square"></path>
                    <g id="$" transform="translate(40.000000, 18.249400)" stroke-linecap="round" stroke-linejoin="round">
                        <path d="M29.1093333,21.3688579 C29.1093333,13.3021912 22.7751667,9.10385785 14.7085,9.10385785 C6.64183333,9.10385785 0.106,13.3021912 0.106,21.3688579 C0.106,29.4355245 4.96433333,31.1130245 14.7085,35.9805245 C24.4343333,40.8388579 29.3018333,42.5163579 29.3018333,50.5830245 C29.3018333,58.6405245 22.7751667,62.7471912 14.7085,62.7471912 C6.64183333,62.7471912 0.106,58.6405245 0.106,50.5830245" id="Stroke-1"></path>
                        <path d="M14.7066667,1.85394119 L14.7066667,8.24310785" id="Stroke-3"></path>
                        <path d="M14.7066667,63.6125245 L14.7066667,69.9925245" id="Stroke-5"></path>
                    </g>
                </g>
            </g>
        </g>
    </g>
</svg>