<?xml version="1.0" encoding="UTF-8"?>
<svg width="175px" height="52px" viewBox="0 0 175 52" version="1.1" xmlns="http://www.w3.org/2000/svg" xmlns:xlink="http://www.w3.org/1999/xlink">
    <!-- Generator: Sketch 58 (84663) - https://sketch.com -->
    <title>Playstore</title>
    <desc>Created with Sketch.</desc>
    <defs>
        <linearGradient x1="50%" y1="0%" x2="50%" y2="38.9125982%" id="linearGradient-1">
            <stop stop-color="#FBDA09" offset="0%"></stop>
            <stop stop-color="#FFBC00" offset="100%"></stop>
        </linearGradient>
        <path d="M4.97188643,10.2354188 C7.5220844,5.60610785 11.6556004,5.60387176 14.2071043,10.2354188 L18.5273207,18.0775725 C21.0775927,22.7068835 18.8641788,26.4596815 13.5867628,26.4596815 L5.59248745,26.4596815 C0.31362068,26.4596815 -1.89963426,22.7091196 0.651795523,18.0775725 L4.97188643,10.2354188 Z" id="path-2"></path>
        <linearGradient x1="38.0378909%" y1="58.4755255%" x2="54.6189257%" y2="39.0830098%" id="linearGradient-4">
            <stop stop-color="#01E2FF" offset="0%"></stop>
            <stop stop-color="#01C4FF" offset="100%"></stop>
        </linearGradient>
        <linearGradient x1="20.2810876%" y1="31.6656712%" x2="83.820166%" y2="70.6176491%" id="linearGradient-5">
            <stop stop-color="#28D781" offset="0%"></stop>
            <stop stop-color="#02F076" offset="100%"></stop>
        </linearGradient>
        <linearGradient x1="74.4881466%" y1="34.5215629%" x2="10.1079427%" y2="69.572105%" id="linearGradient-6">
            <stop stop-color="#F2414E" offset="0%"></stop>
            <stop stop-color="#E02554" offset="100%"></stop>
        </linearGradient>
    </defs>
    <g id="Page-1" stroke="none" stroke-width="1" fill="none" fill-rule="evenodd">
        <g id="Desktop-HD" transform="translate(-1027.000000, -5288.000000)">
            <g id="Playstore" transform="translate(1027.000000, 5288.000000)">
                <rect id="background" fill="#000000" x="0" y="0" width="175" height="52" rx="10"></rect>
                <g id="get-it-on" transform="translate(54.000000, 8.000000)" fill="#FFFFFF">
                    <path d="M39.2853828,0 C41.638039,0 43.5452436,1.790861 43.5452436,4 C43.5452436,6.209139 41.638039,8 39.2853828,8 C36.9327267,8 35.025522,6.209139 35.025522,4 C35.025522,1.790861 36.9327267,0 39.2853828,0 Z M39.2853828,1.22222222 C37.6515938,1.22222222 36.3271462,2.46587569 36.3271462,4 C36.3271462,5.5341243 37.6515938,6.77777778 39.2853828,6.77777778 C40.9191718,6.77777778 42.2436195,5.5341243 42.2436195,4 C42.2436195,2.46587569 40.9191718,1.22222222 39.2853828,1.22222222 Z" id="o"></path>
                    <path d="M13.8445476,0.333333333 L13.8445476,1.22222222 L10.4123689,1.22133333 L10.4123689,3.55533333 L13.4895592,3.55555556 L13.4895592,4.44444444 L10.4123689,4.44433333 L10.4123689,6.88833333 L13.8445476,6.88888889 L13.8445476,7.77777778 L9.11136891,7.77777778 L9.11136891,0.333333333 L13.8445476,0.333333333 Z" id="e"></path>
                    <path d="M20.4709977,0.333333333 L20.4709977,1.22222222 L18.4591717,1.22133333 L18.4593968,7.77777778 L17.1577726,7.77777778 L17.1571717,1.22133333 L15.1461717,1.22222222 L15.1461717,0.333333333 L20.4709977,0.333333333 Z" id="t"></path>
                    <path d="M32.0672854,0.333333333 L32.0672854,1.22222222 L30.0554594,1.22133333 L30.0556845,7.77777778 L28.7540603,7.77777778 L28.7534594,1.22133333 L26.7424594,1.22222222 L26.7424594,0.333333333 L32.0672854,0.333333333 Z" id="t"></path>
                    <rect id="i" x="24.2575406" y="0.333333333" width="1.30162413" height="7.44444444"></rect>
                    <path d="M45.9112088,1.96733333 L45.9118329,7.77777778 L44.6102088,7.77777778 L44.6102088,0.333333333 L45.9118329,0.333333333 L46.1484919,0.333333333 L49.6982088,5.78133333 L49.6983759,0.333333333 L51,0.333333333 L51,7.77777778 L49.6983759,7.77777778 L45.9112088,1.96733333 Z" id="n"></path>
                    <g id="g" transform="translate(0.000000, 0.111111)">
                        <polygon id="Rectangle-1" points="4.23421427 3.57445681 7.79801129 3.57445681 7.76272617 4.63355512 4.23421427 4.63355512"></polygon>
                        <path d="M4.1812866,0 C5.38803574,0 6.4025347,0.395357461 7.09617399,1.08196945 L6.28135903,1.84756133 C5.77270179,1.35966644 5.05021046,1.09219514 4.21657171,1.09219514 C2.55039619,1.09219514 1.19969404,2.35913004 1.19969404,3.92197344 C1.19969404,5.48481685 2.55039619,6.75175175 4.21657171,6.75175175 C5.88274724,6.75175175 7.06570724,5.84824729 7.06322625,3.92197344 C7.06604724,3.80280566 7.06308261,3.68680947 7.0545863,3.57410121 L8.09562154,3.57450229 C8.09573938,3.58758299 8.09579839,3.60069025 8.09579839,3.61382393 C8.48738052,6.31082709 6.52912533,7.86379205 4.1812866,7.84394689 C1.872028,7.84084106 0,6.08801957 0,3.92197344 C0,1.75592732 1.87202577,0 4.1812866,0 Z" id="Oval-1"></path>
                    </g>
                </g>
                <g id="googleplay" transform="translate(53.000000, 24.000000)" fill="#FFFFFF">
                    <g id="big-P" transform="translate(73.176972, 0.578947)">
                        <path d="M11.0620863,4.98239774 C11.062086,9.32184729 7.2347743,9.96479548 7.2347743,9.96479548 L0.586353945,9.96479589 L0.586353945,4.06958521e-07 L7.2347743,0 C7.2347743,0 11.0620866,0.642948191 11.0620863,4.98239774 Z M6.41132316,2.41097458 L1.87633262,2.41037937 L1.87633262,7.75789474 L6.41132316,7.75729953 C6.63101761,7.74807377 8.4434968,7.59584882 8.4434968,5.08413705 C8.4434968,2.57242529 6.63101761,2.42020034 6.41132316,2.41097458 Z" id="Combined-Shape"></path>
                        <rect id="Rectangle-6" x="0" y="0" width="2.34541578" height="16.2105263"></rect>
                    </g>
                    <rect id="y" x="85.6076759" y="0.578947368" width="2.34541578" height="16.2105263"></rect>
                    <path d="M94.2187292,6.02105263 C98.2047309,6.02105263 98.9584916,8.67394518 98.9906945,9.66771513 L98.9915587,9.72111431 L98.9915587,16.7842722 L96.646143,16.7842722 L96.6465682,15.63009 C96.000586,16.1564922 94.9676825,16.651998 93.3361062,16.752611 C89.7689386,16.9725845 89.6050205,13.9146681 89.597489,13.4387416 L89.5971264,13.3889494 C89.5971264,13.1618937 89.4128028,10.4160208 92.3855142,9.97954873 C94.491226,9.67037498 95.9658305,10.1858075 96.6468608,10.5127609 L96.6468388,10.0387542 C96.4804994,9.40855104 95.9627146,8.2462685 94.4060876,8.2462685 C92.2704869,8.2462685 91.798874,9.38629729 91.798874,9.38629729 L89.8452389,8.2462685 L89.8575288,8.22273894 C89.9857835,7.9847188 91.1372621,6.02105263 94.2187292,6.02105263 Z M91.8030541,13.4620528 C91.6459868,15.9683747 96.1378932,14.7649106 96.5392364,12.9882093 C96.5392364,12.4232267 96.4785969,12.158234 96.4785969,12.158234 C96.4785969,12.158234 91.9601213,10.955731 91.8030541,13.4620528 Z" id="a"></path>
                    <path d="M101.556503,6.36842105 L104.565087,13.4244211 L107.55014,6.42450658 L109.895556,6.42450658 L103.550107,21.3052632 L101.204691,21.3052632 L103.392087,16.1744211 L99.2110874,6.36842105 L101.556503,6.36842105 Z" id="y"></path>
                    <path d="M62.9656623,6.02105263 C66.8978699,6.02105263 67.9262134,10.1577076 67.9262134,10.1577076 L67.9262134,10.1577076 L60.508371,13.1846173 C60.508371,13.1846173 60.9874426,14.8587963 63.2176702,14.8700173 C64.9640215,14.8788038 65.9498468,13.3416779 65.9498468,13.3416779 L65.9498468,13.3416779 L67.831853,14.6001287 C67.831853,14.6001287 66.3131772,17.0252653 63.2028462,17.0252653 C59.3806783,17.0252653 57.6972281,13.7253074 57.6972281,11.5822059 C57.6972281,9.51738287 59.0334546,6.02105263 62.9656623,6.02105263 Z M62.7393113,8.15678205 C59.7116526,8.70372089 60.0926577,11.3197595 60.0926577,11.3197595 L65.1038812,9.30022823 C65.1038812,9.30022823 64.1706137,7.89822093 62.7393113,8.15678205 Z" id="e"></path>
                    <rect id="i" x="54.1791045" y="0.578947368" width="2.48130897" height="16.1764706"></rect>
                    <path d="M47.1366715,6.0227616 C49.2111761,5.96517403 50.2083033,7.38212429 50.2083033,7.38212429 L50.2083033,7.38212429 L50.2083033,6.3726199 L52.5020317,6.39218494 L52.5020317,16.599042 C52.5020317,19.206866 50.9295478,21.9596744 47.2275397,21.9596744 C43.5255316,21.9596744 42.3299193,18.7210804 42.3299193,18.7210804 L42.3299193,18.7210804 L44.4364947,17.8463293 C44.4364947,17.8463293 45.0789867,19.8422725 47.3370092,19.8422699 C49.9084025,19.8422669 50.2085884,17.5324187 50.2085884,16.741751 L50.2085884,15.6340706 C50.2085884,15.6340706 49.3188635,17.0089973 47.1089477,17.0090004 C44.712948,17.0090036 41.8656716,14.982097 41.8656716,11.5266232 C41.8656716,8.07114931 44.5467482,6.09465703 47.1366715,6.0227616 Z M47.3047955,8.17667551 C45.6321147,8.17667551 44.276139,9.68954338 44.276139,11.5557605 C44.276139,13.4219776 45.6321147,14.9348454 47.3047955,14.9348454 C48.9774764,14.9348454 50.3334521,13.4219776 50.3334521,11.5557605 C50.3334521,9.68954338 48.9774764,8.17667551 47.3047955,8.17667551 Z" id="g"></path>
                    <path d="M35.2524548,6.02105263 C38.3358303,6.02105263 40.8353999,8.48348651 40.8353999,11.5210526 C40.8353999,14.5586188 38.3358303,17.0210526 35.2524548,17.0210526 C32.1690793,17.0210526 29.6695096,14.5586188 29.6695096,11.5210526 C29.6695096,8.48348651 32.1690793,6.02105263 35.2524548,6.02105263 Z M35.2159649,8.17791538 C33.4828258,8.17791538 32.0778389,9.67468891 32.0778389,11.5210526 C32.0778389,13.3674164 33.4828258,14.8641899 35.2159649,14.8641899 C36.9491041,14.8641899 38.354091,13.3674164 38.354091,11.5210526 C38.354091,9.67468891 36.9491041,8.17791538 35.2159649,8.17791538 Z" id="o"></path>
                    <path d="M23.1735635,6.02105263 C26.256939,6.02105263 28.7565087,8.48348651 28.7565087,11.5210526 C28.7565087,14.5586188 26.256939,17.0210526 23.1735635,17.0210526 C20.090188,17.0210526 17.5906183,14.5586188 17.5906183,11.5210526 C17.5906183,8.48348651 20.090188,6.02105263 23.1735635,6.02105263 Z M23.1370737,8.17791538 C21.4039345,8.17791538 19.9989476,9.67468891 19.9989476,11.5210526 C19.9989476,13.3674164 21.4039345,14.8641899 23.1370737,14.8641899 C24.8702128,14.8641899 26.2751997,13.3674164 26.2751997,11.5210526 C26.2751997,9.67468891 24.8702128,8.17791538 23.1370737,8.17791538 Z" id="o"></path>
                    <g id="big-g">
                        <polygon id="Rectangle-1" points="8.75756106 7.76470588 16.1285083 7.76470588 16.0555286 10.0653595 8.75756106 10.0653595"></polygon>
                        <path d="M8.64809155,0 C11.1448999,0 13.2437909,0.859450026 14.6784734,2.35196305 L12.9910447,4.0128136 C11.9390282,2.9533515 10.4449487,2.37254902 8.72107122,2.37254902 C5.27494569,2.37254902 2.48130897,5.124681 2.48130897,8.51960784 C2.48130897,11.9145347 5.27494569,14.6666667 8.72107122,14.6666667 C12.1671968,14.6666667 14.6138949,12.7040058 14.6087636,8.51960784 C14.6145928,8.26098077 14.6084777,8.00923061 14.5909422,7.76460938 L16.7440438,7.76396478 C16.7442924,7.79265848 16.7444168,7.82141105 16.7444168,7.85022212 C17.5543202,13.7088567 13.5040907,17.0823249 8.64809155,17.0392157 C3.87188707,17.032469 0,13.2248573 0,8.51960784 C0,3.81435836 3.87188247,0 8.64809155,0 Z" id="Oval-1"></path>
                    </g>
                </g>
                <g id="logo_play" transform="translate(14.000000, 10.000000)">
                    <mask id="mask-3" fill="white">
                        <use xlink:href="#path-2"></use>
                    </mask>
                    <use id="yellow" fill="url(#linearGradient-1)" transform="translate(9.590079, 16.892840) rotate(-270.000000) translate(-9.590079, -16.892840) " xlink:href="#path-2"></use>
                    <polygon id="blue" fill="url(#linearGradient-4)" mask="url(#mask-3)" points="-2.49800181e-16 -0.0118055561 16.3812708 16.6212999 -0.211588542 33.9118273"></polygon>
                    <polygon id="green" fill="url(#linearGradient-5)" mask="url(#mask-3)" points="-3.36859809 -3.43597005 16.3793267 16.6261651 22.2506149 10.9040907"></polygon>
                    <polygon id="red" fill="url(#linearGradient-6)" mask="url(#mask-3)" points="16.3820168 16.6223375 25.3703704 25.8778354 -1.48148148 35.1333333"></polygon>
                </g>
            </g>
        </g>
    </g>
</svg>